<?xml version="1.0" standalone="no"?>
<!DOCTYPE svg PUBLIC "-//W3C//DTD SVG 20010904//EN"
 "http://www.w3.org/TR/2001/REC-SVG-20010904/DTD/svg10.dtd">
<svg version="1.0" xmlns="http://www.w3.org/2000/svg"
 width="400.000000pt" height="400.000000pt" viewBox="0 0 400.000000 400.000000"
 preserveAspectRatio="xMidYMid meet">
<metadata>
Created by potrace 1.14, written by Peter Selinger 2001-2017
</metadata>
<g transform="translate(0.000000,400.000000) scale(0.100000,-0.100000)"
fill="#000000" stroke="none">
<path d="M0 3626 l0 -374 27 -7 28 -7 -28 -20 c-15 -11 -27 -28 -27 -38 0 -16
14 -19 148 -24 252 -11 305 -15 314 -24 5 -5 14 -47 20 -95 9 -66 9 -89 0
-100 -10 -12 -62 -16 -247 -22 l-235 -7 0 -1455 0 -1454 82 3 c59 2 83 7 86
17 3 8 0 11 -7 7 -6 -4 -11 -1 -11 6 0 10 -2 10 -9 -1 -6 -10 -10 -10 -16 -1
-8 13 22 39 45 40 8 0 22 -5 30 -10 13 -8 12 -10 -2 -10 -10 0 -18 -4 -18 -10
0 -5 7 -10 15 -10 9 0 12 -6 9 -15 -5 -13 18 -15 174 -15 l181 0 15 32 c9 17
16 37 16 45 0 7 11 19 25 25 14 6 25 15 25 20 0 6 17 7 40 3 28 -5 40 -3 40 5
0 8 14 11 40 8 29 -3 40 0 40 10 0 8 -6 12 -14 9 -8 -3 -17 0 -20 8 -2 7 -15
16 -28 18 -13 3 8 3 47 1 38 -3 71 -7 74 -10 2 -2 -1 -4 -8 -4 -7 0 -9 -5 -5
-12 5 -8 0 -9 -14 -6 -15 4 -22 2 -22 -7 0 -10 19 -14 75 -13 58 0 75 3 75 14
0 18 6 18 63 -2 26 -9 44 -20 41 -25 -5 -8 10 -13 29 -10 5 1 6 -3 3 -8 -4 -5
1 -14 11 -19 14 -9 13 -10 -9 -9 -15 1 -26 7 -25 12 1 6 -6 9 -15 9 -10 -1
-16 2 -13 6 2 4 -6 12 -20 18 -18 9 -26 8 -36 -4 -10 -12 -7 -17 20 -27 17 -6
31 -17 31 -25 0 -7 5 -10 11 -7 14 9 66 -13 73 -31 4 -11 2 -12 -14 -4 -27 14
-40 12 -34 -5 5 -12 28 -15 122 -14 113 0 117 1 186 37 39 20 72 40 74 45 2 4
8 7 14 7 6 0 18 8 27 18 9 10 40 33 69 51 44 28 58 32 88 26 47 -8 114 -70
145 -134 l24 -50 340 0 c193 -1 334 3 326 8 -8 5 -11 16 -7 29 7 21 8 21 55
-8 l48 -30 707 0 706 0 0 615 c-1 338 -4 615 -9 615 -4 0 -16 -9 -26 -20 -10
-11 -20 -19 -22 -17 -1 2 11 43 27 92 l30 89 0 798 0 798 -62 0 c-56 0 -135 5
-447 29 -106 8 -132 20 -108 50 13 15 14 23 17 133 1 38 8 74 16 85 7 10 14
35 14 56 0 20 5 37 10 37 6 0 10 5 10 10 0 6 -6 10 -14 10 -19 0 -25 57 -10
90 15 31 -4 64 -30 54 -10 -4 -16 -1 -16 9 0 8 -13 28 -30 44 -25 23 -29 33
-24 59 3 18 1 41 -5 52 -8 15 -8 42 -1 91 5 39 11 98 11 131 l2 60 333 0 c290
0 334 2 334 15 0 13 -229 15 -2000 15 l-2000 0 0 -374z m3261 287 c0 -32 2
-206 4 -388 2 -181 7 -371 10 -421 l6 -91 -26 -5 c-45 -9 -438 25 -479 41 -16
6 -31 9 -34 7 -2 -3 -19 -40 -38 -83 -19 -43 -39 -80 -45 -82 -6 -2 -3 -11 7
-22 15 -17 14 -26 -31 -160 -66 -197 -69 -204 -84 -185 -7 9 -43 35 -80 59
-65 43 -141 117 -141 137 0 6 14 41 31 78 91 195 167 388 157 399 -6 8 -8 71
-4 176 6 154 6 165 -14 189 -11 15 -20 28 -20 31 0 15 118 27 290 29 115 2
198 7 202 13 4 6 8 83 8 173 l0 162 140 0 140 0 1 -57z m-1476 -415 c7 -7 20
-46 29 -87 21 -89 57 -165 90 -186 49 -32 86 -187 58 -241 -5 -11 -10 -52 -11
-93 -3 -90 -3 -92 -18 -109 -7 -7 -13 -22 -13 -32 0 -10 -5 -22 -11 -26 -8 -4
-9 0 -4 15 3 11 2 21 -3 21 -5 0 -12 9 -15 20 -3 11 -18 25 -33 31 -16 5 -31
14 -34 19 -3 5 -34 13 -69 19 -35 6 -79 19 -98 31 -45 26 -50 25 -45 -9 4 -28
2 -30 -42 -36 -25 -4 -48 -11 -51 -15 -3 -4 -22 -3 -42 2 -21 6 -57 12 -80 15
-46 5 -53 14 -27 35 49 40 64 62 64 97 0 47 18 111 31 111 19 0 49 -21 49 -34
0 -7 9 -25 21 -40 17 -22 28 -26 72 -26 65 0 122 16 159 43 l28 21 -22 12
c-25 14 -17 20 31 26 39 5 35 22 -10 48 l-42 23 26 23 c32 27 29 30 -43 39
-44 5 -72 2 -130 -16 -41 -13 -77 -24 -80 -24 -18 -3 -50 -28 -50 -40 0 -20
-17 -19 -49 4 -19 14 -54 21 -121 27 -52 4 -98 7 -102 6 -14 -4 -8 15 12 41
11 14 20 29 20 34 0 5 13 23 29 41 16 17 25 34 20 37 -13 9 -11 38 4 59 7 9
28 19 47 21 46 4 70 14 98 42 25 25 84 53 112 53 9 0 28 9 42 19 13 11 40 21
59 23 36 4 125 -23 144 -44z m300 -360 c1 -35 5 -88 9 -119 8 -54 7 -57 -25
-93 -27 -31 -34 -35 -41 -22 -5 9 -7 20 -3 25 3 5 0 11 -7 13 -7 3 -8 9 -3 19
13 19 16 71 4 64 -5 -4 -9 -16 -9 -28 0 -15 -3 -18 -11 -10 -8 8 -8 17 -1 29
7 12 7 25 1 36 -7 14 -6 18 6 18 8 0 15 -7 15 -15 0 -18 12 -19 28 -3 16 16
15 73 0 90 -22 24 -21 40 2 28 17 -9 20 -8 20 10 0 11 3 20 8 20 4 0 7 -28 7
-62z m-836 -189 c25 -5 62 -7 83 -4 33 6 37 4 35 -15 -1 -20 -63 -86 -101
-107 -13 -7 -30 -7 -55 0 -52 15 -58 23 -58 70 -1 52 13 81 34 72 9 -3 37 -10
62 -16z m166 -9 c3 -5 1 -10 -4 -10 -6 0 -11 5 -11 10 0 6 2 10 4 10 3 0 8 -4
11 -10z m623 -125 c11 -14 24 -25 28 -25 13 -1 72 -81 95 -130 17 -36 19 -48
10 -90 -20 -92 -116 -336 -194 -490 -94 -188 -99 -197 -123 -214 -16 -12 -23
-10 -60 23 -23 20 -67 49 -98 64 -51 25 -58 26 -78 13 -13 -8 -30 -25 -38 -37
-40 -57 -48 -64 -61 -51 -7 6 -21 12 -31 12 -28 0 -118 52 -138 80 -9 14 -21
35 -24 48 -11 35 -67 29 -160 -18 -47 -24 -83 -37 -89 -31 -17 17 86 360 139
464 20 38 42 34 35 -7 -1 -4 4 -14 10 -22 8 -10 9 -36 5 -84 -11 -112 15 -207
46 -165 4 6 8 -2 8 -17 0 -16 4 -28 9 -28 5 0 12 -13 16 -30 6 -29 25 -52 25
-31 0 18 18 13 25 -6 3 -10 17 -31 31 -48 l26 -30 -16 35 c-16 34 -16 34 1 11
10 -14 25 -34 35 -45 l16 -21 57 28 c31 15 53 22 50 15 -4 -7 19 15 51 48 39
41 75 94 107 155 73 144 123 236 160 292 19 29 37 66 41 82 22 92 27 122 28
143 0 12 4 22 8 22 5 0 7 10 4 23 -5 28 6 87 16 87 5 0 17 -11 28 -25z m-388
-33 c0 -14 -48 -33 -55 -22 -4 6 -3 15 0 20 7 12 55 13 55 2z m-280 -32 c0 -5
-4 -10 -10 -10 -5 0 -10 5 -10 10 0 6 5 10 10 10 6 0 10 -4 10 -10z m260 -65
c0 -20 -17 -35 -39 -35 -15 0 -31 -4 -36 -9 -16 -14 -83 -23 -90 -12 -3 6 -12
8 -19 5 -16 -6 -30 11 -21 26 5 8 11 7 21 -1 10 -8 14 -8 14 0 0 6 12 11 28
11 35 -1 70 5 77 12 6 6 65 9 65 3z m82 -109 c6 -51 -9 -103 -36 -125 -8 -7
-35 -19 -60 -26 -41 -13 -44 -12 -49 6 -4 14 1 23 16 29 38 16 67 47 61 64 -3
9 -10 16 -15 16 -5 0 -9 6 -9 13 0 11 -12 12 -54 6 -30 -4 -63 -10 -75 -14
-11 -3 -31 0 -43 7 -13 7 -26 12 -29 11 -3 -1 -6 5 -6 13 0 17 10 17 77 3 45
-10 54 -9 72 8 11 10 23 18 27 17 3 -1 16 5 28 13 12 8 26 12 31 9 6 -3 15 1
22 9 19 22 36 -2 42 -59z m1621 -92 c27 -19 52 -49 70 -84 26 -50 28 -62 24
-130 -8 -132 -82 -275 -184 -354 l-52 -41 42 -43 c23 -24 63 -55 90 -68 26
-13 47 -27 47 -30 0 -11 -141 -174 -151 -174 -22 0 -87 41 -123 79 -41 42 -58
78 -82 171 -41 158 -81 258 -156 382 l-23 38 33 65 c43 82 140 175 214 204 80
32 193 25 251 -15z m452 -66 c35 -210 83 -553 78 -564 -6 -15 -131 -79 -174
-89 -33 -8 -35 -3 -51 135 -7 61 -15 109 -18 108 -4 -2 -48 -52 -99 -111 -51
-60 -100 -111 -108 -114 -21 -8 -73 21 -114 63 -28 29 -31 35 -18 51 33 43
219 265 283 339 39 44 97 111 129 147 32 37 65 67 72 67 8 0 16 -14 20 -32z
m-2325 8 c0 -11 -19 -15 -25 -6 -3 5 1 10 9 10 9 0 16 -2 16 -4z m1355 -176
c3 -5 1 -10 -4 -10 -6 0 -11 5 -11 10 0 6 2 10 4 10 3 0 8 -4 11 -10z m-1306
-389 c28 -18 19 -123 -24 -281 l-25 -95 2 181 c3 168 4 180 20 170 25 -15 35
1 12 19 -20 15 -8 21 15 6z m-1189 -1580 c32 -15 56 -34 58 -45 3 -14 0 -17
-11 -13 -11 4 -14 1 -10 -9 3 -7 0 -14 -7 -14 -7 0 -10 -6 -7 -14 3 -7 -1 -23
-9 -34 -8 -11 -12 -26 -9 -34 4 -10 -8 -14 -47 -15 -65 -3 -108 -9 -130 -17
-41 -14 -49 -15 -43 -6 3 6 -4 10 -16 10 -21 0 -21 1 -4 27 16 23 16 25 1 20
-10 -4 -16 -1 -16 9 0 10 5 12 13 7 7 -4 6 2 -4 17 -10 17 -13 35 -9 57 5 20
3 34 -4 37 -6 2 -2 5 9 5 15 1 17 3 6 10 -11 7 -11 10 0 17 48 29 163 23 239
-15z m-10 -211 c-20 -13 -40 -13 -40 0 0 6 12 10 28 10 21 0 24 -2 12 -10z
m861 -7 c13 -16 12 -17 -3 -4 -17 13 -22 21 -14 21 2 0 10 -8 17 -17z m40 -30
c13 -16 12 -17 -3 -4 -17 13 -22 21 -14 21 2 0 10 -8 17 -17z"/>
<path d="M2540 2881 c0 -23 33 -30 46 -10 3 6 15 9 25 6 10 -3 22 -1 25 4 3 5
-10 9 -30 9 -19 0 -41 3 -50 6 -12 4 -16 0 -16 -15z"/>
<path d="M1502 1936 l-22 -12 21 -17 c23 -20 39 -15 39 13 0 26 -11 30 -38 16z"/>
<path d="M1857 1913 c-4 -3 -7 -11 -7 -17 0 -6 5 -5 12 2 6 6 9 14 7 17 -3 3
-9 2 -12 -2z"/>
<path d="M3082 2280 c-59 -36 -90 -140 -56 -188 38 -55 98 -49 158 18 51 57
60 134 20 174 -22 22 -83 20 -122 -4z"/>
<path d="M228 163 c7 -3 16 -2 19 1 4 3 -2 6 -13 5 -11 0 -14 -3 -6 -6z"/>
<path d="M125 109 c-11 -16 -1 -19 13 -3 7 8 8 14 3 14 -5 0 -13 -5 -16 -11z"/>
<path d="M986 22 c-3 -3 -3 -9 0 -13 7 -12 54 -12 54 0 0 10 -47 21 -54 13z"/>
</g>
</svg>
